PathFileType	4	(X/Y/Z)	C:/Users/beibeiliu/ov580/test_trc\sequence.13_training_dense_left.trc
DataRate	CameraRate	NumFrames	NumMarkers	Units	OrigDataRate	OrigDataStartFrame	OrigNumFrames
120	120	12	19	mm	120	145	288
Frame#	Time	ThumbCMC			ThumbMCP			ThumbIP			ThumbTip			IndexMCP			IndexPIP			IndexTip			MiddleMCP			MiddlePIP			MiddleTip			RingMCP			RingPIP			RingTip			PinkyMCP			PinkyPIP			PinkyTip			BackHand1			BackHand2			BackHand3	
		X0	Y0	Z0	X1	Y1	Z1	X2	Y2	Z2	X3	Y3	Z3	X4	Y4	Z4	X5	Y5	Z5	X6	Y6	Z6	X7	Y7	Z7	X8	Y8	Z8	X9	Y9	Z9	X10	Y10	Z10	X11	Y11	Z11	X12	Y12	Z12	X13	Y13	Z13	X14	Y14	Z14	X15	Y15	Z15	X16	Y16	Z16	X17	Y17	Z17	X18	Y18	Z18	
144	1.2	-198.138	47.8047	-3.14293	-179.149	70.6665	14.9808	-159.094	76.967	27.4913	-137.644	74.4124	41.7983	-136.733	67.2193	-14.6192	-126.296	83.6032	7.71881	-139.388	84.8335	34.9405	-119.893	44.303	-11.5324	-100.422	54.7181	-5.38442	-76.9349	68.9096	1.96302	-116.303	29.6616	-1.27784	-101.048	35.1316	4.11188	-78.6192	43.3037	9.68312	-126.369	9.72898	10.6862	-107.179	10.2014	18.6433	-93.3958	7.9229	19.731	-160.335	10.5968	-13.3703	-182.892	-4.12678	-11.9212	-179.38	25.7046	-22.6354	
145	1.20833	-192.73	49.4516	-4.98127	-175.644	66.9281	14.6828	-153.653	72.5792	28.0961	-135.455	67.6104	41.68	-130.107	63.7316	-12.2697	-120.203	75.6425	7.45946	-132.287	78.9594	32.1699	-118.085	37.5624	-10.3743	-97.0054	46.4711	-3.66935	-71.7359	59.6318	3.13698	-119.769	22.5829	-2.47292	-96.9634	27.3748	5.53678	-76.9163	36.1911	10.7071	-121.449	-0.11501	12.2065	-108.863	1.53039	18.8635	-91.6625	-0.900683	21.3143	-159.728	4.41688	-11.3542	-182.675	-7.76946	-12.8747	-180.588	22.6037	-23.2213	
146	1.21667	-189.661	42.8623	-4.86681	-172.067	61.7807	14.3596	-155.019	72.4549	28.4823	-135.402	61.9774	40.9723	-126.159	56.0321	-12.4988	-116.718	71.0125	5.99862	-131.38	72.5935	36.3491	-116.04	34.0301	-12.7543	-93.8857	39.9655	-3.60828	-71.5827	48.7456	4.11168	-114.362	16.3608	-2.20986	-92.4351	21.0695	5.30668	-78.9094	25.0775	10.613	-123.623	-4.83542	12.382	-108.637	-3.25426	16.2806	-89.9926	-7.03908	18.4755	-160.037	1.78614	-12.1245	-181.826	-8.45303	-14.0924	-177.704	17.1614	-25.4941	
147	1.225	-186.026	43.8107	-5.69649	-170.128	63.5241	14.5829	-149.328	63.8096	27.1137	-130.175	60.5418	43.5339	-124.729	53.6584	-14.3575	-112.295	64.6455	8.01742	-124.683	68.1535	33.4808	-112.178	26.3182	-9.81885	-92.5611	33.6819	-4.1097	-70.4204	40.0392	4.43963	-115.808	8.35557	-0.801726	-93.4501	15.6565	4.80685	-73.5867	17.0083	11.7437	-124.127	-11.9329	12.1772	-106.048	-9.69263	17.7391	-90.0068	-15.901	20.6051	-156.274	-2.50401	-12.4329	-186.565	-8.37583	-14.405	-178.152	20.0689	-25.2403	
148	1.23333	-186.106	44.1285	-7.23937	-163.816	59.8285	14.1083	-145.432	61.2918	27.2721	-126.871	55.8711	44.8142	-121.682	45.8584	-13.3976	-107.573	55.5677	9.47918	-120.449	59.3266	36.9613	-111.862	23.5245	-12.1539	-88.9804	28.088	-3.4475	-65.7394	29.2085	7.59033	-113.892	2.31961	-0.304859	-93.3587	7.9009	4.91544	-72.5039	13.3343	10.8086	-125.277	-14.7917	10.9553	-107.214	-16.0401	16.8087	-91.3815	-24.2568	21.0972	-156.403	-4.19561	-13.4841	-187.842	-7.85085	-17.2607	-174.734	17.1024	-26.468	
149	1.24167	-181.66	41.1487	-7.03975	-162.374	59.4006	14.8903	-137.677	58.3715	29.1804	-120.59	45.6473	43.4323	-114.863	41.735	-10.2476	-103.622	47.4487	9.88439	-118.5	56.4151	37.5655	-111.8	17.9744	-11.7788	-88.4364	18.1746	-3.16026	-61.101	23.2174	7.95139	-113.952	0.338255	-2.87821	-91.8737	-0.0861566	5.57501	-75.6249	0.25352	11.9585	-128.538	-18.6053	10.0919	-114.021	-23.9367	17.4899	-95.7552	-32.0409	22.6189	-157.464	-8.26609	-14.5361	-185.757	-11.4617	-15.3483	-174.278	17.7973	-28.2556	
150	1.25	-175.494	39.4924	-8.00272	-153.507	53.3905	14.3699	-136.448	54.1965	26.9974	-118.088	42.387	42.5447	-114.569	34.1953	-12.1799	-100.169	45.922	11.3865	-111.336	47.7104	36.8595	-107.52	8.64021	-9.73796	-83.7549	9.86171	0.446968	-64.6008	12.3701	7.68291	-111.431	-4.68441	-4.0128	-91.808	-7.27899	5.42385	-73.8199	-6.83165	12.264	-129.125	-27.0387	9.97264	-112.69	-30.0635	17.4181	-97.8232	-41.58	19.9286	-161.482	-8.45167	-15.9196	-185.471	-9.76432	-16.7041	-172.586	15.3238	-29.571	
151	1.25833	-172.152	41.624	-9.69793	-151.02	46.7574	11.3122	-128.593	47.8234	26.2381	-116.78	31.899	38.8565	-112.679	27.4982	-13.9966	-97.3625	35.372	9.3159	-108.907	41.2338	36.0011	-109.97	1.44161	-10.9852	-84.6654	0.950205	-2.09944	-61.4447	2.40242	9.76296	-111.918	-14.3175	-3.31317	-92.2917	-14.8703	5.03531	-76.8447	-16.4436	11.3473	-128.115	-29.9094	7.49138	-115.84	-36.9704	15.6452	-103.83	-46.0029	18.5199	-158.202	-15.2014	-18.0404	-185.364	-13.5003	-18.6257	-167.403	9.49371	-28.6734	
152	1.26667	-170.002	37.7147	-11.2148	-151.613	46.7916	9.8666	-129.698	44.9886	23.7164	-115.125	30.5097	37.8986	-108.9	22.4557	-14.0853	-95.1646	30.0511	8.65863	-104.193	35.3871	32.6645	-107.967	-5.7221	-12.6596	-84.3848	-5.33192	-3.68022	-64.2369	-7.21093	11.6744	-116.458	-19.4377	-5.91536	-96.2875	-23.4922	3.17106	-74.3794	-26.0268	13.1563	-133.128	-37.3862	7.39022	-115.421	-40.266	12.408	-102.071	-50.1819	16.605	-162.611	-16.4243	-18.0629	-186.936	-11.6692	-22.5855	-169.999	7.60355	-30.2118	
153	1.275	-168.258	32.5492	-12.0329	-145.351	43.6751	9.04894	-126.733	33.9915	21.8317	-114.77	22.8232	36.5882	-110.693	10.1789	-15.4498	-92.773	19.7502	9.90689	-105.299	25.3427	34.268	-105.135	-11.9164	-14.821	-85.1822	-16.0157	-2.07629	-64.9517	-12.1843	15.2567	-120.754	-29.5787	-5.72638	-95.3495	-32.7365	2.47565	-79.3519	-31.8852	10.0664	-134.065	-39.1576	3.76475	-117.54	-48.8216	12.1519	-104.827	-56.6784	14.1554	-160.815	-22.4455	-18.4159	-190.298	-15.3251	-22.0867	-170.982	4.53828	-32.0745	
154	1.28333	-164.935	28.1975	-12.4257	-138.876	36.3835	9.7598	-119.079	25.7003	24.1462	-113.893	7.53946	34.9282	-104.735	2.92447	-15.6622	-93.3413	4.21253	8.65563	-102.46	13.9166	31.029	-109.795	-23.2913	-14.2028	-85.7195	-23.652	-1.63075	-68.5551	-19.6109	22.8846	-122.264	-32.9735	-9.57939	-97.6859	-42.4609	2.5096	-80.3381	-42.7891	11.3673	-140.197	-47.0925	2.65388	-119.714	-53.6568	6.55087	-109.137	-62.4995	11.8932	-165.151	-23.4464	-20.6565	-192.5	-16.066	-21.6592	-167.115	2.55617	-31.7331	
155	1.29167	-165.557	27.1166	-11.9849	-138.48	24.6078	9.06418	-119.856	17.5333	22.9066	-109.287	-2.96941	36.5092	-108.99	-4.03538	-19.8043	-91.3753	-3.18952	5.09546	-102.185	6.1862	29.6056	-112.887	-29.3367	-17.903	-87.343	-30.7862	1.4517	-79.4508	-27.1436	26.0364	-125.342	-40.3162	-12.7719	-104.922	-51.0784	-2.58924	-84.6554	-50.4719	9.87122	-141.045	-52.558	-0.969627	-127.209	-61.545	5.76218	-113.241	-70.5177	8.59414	-168.639	-25.5018	-23.146	-195.177	-14.4647	-24.7953	-172.8	-1.52404	-32.9547	
